
<svg version="1.0" xmlns="http://www.w3.org/2000/svg"
 width="300.000000pt" height="300.000000pt" viewBox="0 0 300.000000 300.000000"
 preserveAspectRatio="xMidYMid meet">

<g transform="translate(0.000000,300.000000) scale(0.100000,-0.100000)"
fill="#000000" stroke="none">
<path d="M1410 2586 c-419 -104 -553 -155 -618 -234 -20 -24 -83 -93 -139
-153 -57 -59 -118 -132 -136 -161 -29 -47 -77 -147 -77 -162 0 -3 22 -6 49 -6
53 0 87 21 77 47 -3 8 -2 11 4 8 11 -7 33 32 25 45 -4 6 -1 9 7 8 7 -2 12 5
12 14 -1 10 2 16 6 15 4 -1 31 28 59 65 65 86 170 176 266 229 41 22 75 43 75
45 0 7 -79 -35 -138 -72 -52 -34 -52 -34 -35 -8 30 47 93 83 202 118 125 39
206 56 118 25 -94 -34 -61 -30 60 6 62 19 154 41 205 49 51 8 77 14 58 15 -29
1 -119 -16 -240 -44 l-25 -6 25 11 c55 24 312 80 368 80 295 0 811 -371 830
-597 l4 -53 44 0 44 0 0 60 c0 47 -7 74 -29 119 -137 271 -573 553 -876 567
-77 3 -109 -1 -225 -30z"/>
<path d="M1568 2483 c12 -2 30 -2 40 0 9 3 -1 5 -23 4 -22 0 -30 -2 -17 -4z"/>
<path d="M1658 2473 c12 -2 30 -2 40 0 9 3 -1 5 -23 4 -22 0 -30 -2 -17 -4z"/>
<path d="M1776 2452 c63 -19 162 -70 250 -128 110 -73 245 -237 323 -391 17
-35 34 -63 36 -63 9 0 -67 143 -108 205 -57 84 -190 218 -268 271 -85 56 -203
111 -254 119 -30 4 -25 1 21 -13z"/>
<path d="M1528 2403 c17 -2 47 -2 65 0 17 2 3 4 -33 4 -36 0 -50 -2 -32 -4z"/>
<path d="M1443 2393 c9 -2 25 -2 35 0 9 3 1 5 -18 5 -19 0 -27 -2 -17 -5z"/>
<path d="M1643 2393 c9 -2 23 -2 30 0 6 3 -1 5 -18 5 -16 0 -22 -2 -12 -5z"/>
<path d="M1305 2365 c-214 -63 -344 -135 -513 -284 -62 -56 -101 -99 -117
-132 -33 -65 -25 -63 13 4 28 49 91 111 202 197 127 100 260 163 450 215 47
13 76 24 65 24 -11 0 -56 -11 -100 -24z"/>
<path d="M1740 2367 c30 -13 94 -40 141 -61 148 -65 287 -204 380 -378 39 -74
53 -86 22 -20 -26 58 -112 182 -162 236 -60 63 -149 131 -203 155 -24 10 -73
32 -110 49 -37 18 -80 34 -95 37 -15 4 -3 -4 27 -18z"/>
<path d="M1040 2360 c-8 -5 -10 -10 -5 -10 6 0 17 5 25 10 8 5 11 10 5 10 -5
0 -17 -5 -25 -10z"/>
<path d="M1450 2360 c-19 -4 12 -5 70 -2 58 3 107 6 109 8 8 7 -143 2 -179 -6z"/>
<path d="M1675 2350 c33 -9 118 -45 265 -113 56 -26 260 -248 260 -283 0 -4
-30 24 -67 61 -37 37 -93 85 -125 106 -56 36 -191 93 -247 105 -14 3 19 -12
75 -34 55 -21 122 -51 148 -66 67 -39 185 -154 221 -215 26 -44 55 -67 55 -43
0 15 -80 144 -127 204 -47 59 -194 188 -216 188 -6 0 -55 20 -108 45 -54 26
-115 48 -136 50 l-38 5 40 -10z m561 -452 c8 -16 13 -28 10 -28 -5 0 -46 69
-46 78 0 8 15 -13 36 -50z"/>
<path d="M1300 2325 c-36 -13 -60 -24 -53 -24 6 -1 24 4 40 10 15 6 51 17 78
24 28 8 39 14 25 14 -14 -1 -54 -11 -90 -24z"/>
<path d="M1113 2256 c-137 -66 -341 -222 -385 -294 -47 -79 -51 -87 -41 -77 6
6 24 31 40 58 53 86 255 242 406 312 40 19 67 34 62 34 -6 1 -43 -14 -82 -33z"/>
<path d="M1448 2253 c34 -2 90 -2 125 0 34 2 6 3 -63 3 -69 0 -97 -1 -62 -3z"/>
<path d="M1285 2235 c-160 -43 -298 -128 -438 -271 -27 -27 -54 -58 -59 -69
-6 -11 17 10 51 47 142 154 307 254 483 292 35 8 52 14 38 14 -14 1 -47 -5
-75 -13z"/>
<path d="M1653 2243 c9 -2 23 -2 30 0 6 3 -1 5 -18 5 -16 0 -22 -2 -12 -5z"/>
<path d="M1708 2233 c7 -3 16 -2 19 1 4 3 -2 6 -13 5 -11 0 -14 -3 -6 -6z"/>
<path d="M1413 2183 c15 -2 37 -2 50 0 12 2 0 4 -28 4 -27 0 -38 -2 -22 -4z"/>
<path d="M1548 2183 c18 -2 45 -2 60 0 15 2 0 4 -33 4 -33 0 -45 -2 -27 -4z"/>
<path d="M1310 2170 c-20 -6 -21 -8 -5 -8 11 0 34 4 50 8 27 7 27 8 5 8 -14 0
-36 -4 -50 -8z"/>
<path d="M1700 2161 c177 -49 303 -119 378 -207 23 -27 51 -60 62 -74 l21 -25
-18 34 c-27 49 -152 162 -219 198 -69 36 -192 79 -249 87 -26 4 -17 -1 25 -13z"/>
<path d="M1154 2111 c-79 -38 -160 -97 -241 -174 -24 -23 -43 -45 -43 -49 0
-5 28 18 63 51 95 91 134 119 232 167 50 24 85 44 79 44 -5 0 -46 -17 -90 -39z"/>
<path d="M1420 2140 c25 -5 63 -12 85 -14 l40 -5 -40 10 c-22 6 -60 12 -85 14
l-45 4 45 -9z"/>
<path d="M1246 2084 c-120 -61 -193 -111 -246 -170 l-35 -39 45 41 c78 71 122
100 240 159 63 31 117 59 119 61 15 14 -29 -4 -123 -52z"/>
<path d="M1563 2113 c9 -2 25 -2 35 0 9 3 1 5 -18 5 -19 0 -27 -2 -17 -5z"/>
<path d="M1630 2101 c8 -6 62 -29 120 -52 58 -22 121 -53 140 -68 19 -15 64
-44 100 -64 77 -44 57 -27 -58 48 -46 30 -131 74 -190 97 -128 51 -131 52
-112 39z"/>
<path d="M1343 2031 c-35 -17 -63 -32 -63 -35 0 -3 29 9 65 26 50 23 73 29 98
24 18 -4 48 -9 67 -11 33 -4 33 -4 -5 6 -85 21 -98 21 -162 -10z"/>
<path d="M1590 2016 c25 -7 54 -16 65 -20 11 -3 2 3 -20 14 -22 11 -51 19 -65
19 -17 0 -11 -4 20 -13z"/>
<path d="M1205 1961 c-48 -28 -95 -66 -95 -77 0 -3 19 10 43 29 23 19 60 44
82 55 22 12 36 21 30 21 -5 1 -32 -12 -60 -28z"/>
<path d="M1680 1986 c0 -3 27 -15 61 -27 33 -12 78 -35 100 -51 49 -35 61 -37
19 -2 -17 15 -63 39 -102 55 -73 30 -78 32 -78 25z"/>
<path d="M1513 1973 c9 -2 23 -2 30 0 6 3 -1 5 -18 5 -16 0 -22 -2 -12 -5z"/>
<path d="M1355 1946 c-63 -20 -139 -55 -124 -56 4 0 27 9 53 20 25 12 78 29
118 40 40 10 62 19 48 19 -14 0 -56 -10 -95 -23z"/>
<path d="M1561 1966 c2 -2 22 -6 44 -9 28 -5 34 -4 20 3 -19 8 -73 14 -64 6z"/>
<path d="M1651 1945 c11 -10 118 -61 113 -53 -6 9 -99 58 -110 58 -4 0 -5 -2
-3 -5z"/>
<path d="M1513 1903 c15 -2 39 -2 55 0 15 2 2 4 -28 4 -30 0 -43 -2 -27 -4z"/>
<path d="M1408 1893 c7 -3 16 -2 19 1 4 3 -2 6 -13 5 -11 0 -14 -3 -6 -6z"/>
<path d="M1610 1893 c8 -3 24 -10 35 -15 20 -9 20 -9 1 6 -11 9 -27 16 -35 15
-14 0 -14 -1 -1 -6z"/>
<path d="M935 1765 c-48 -47 -26 -88 52 -100 59 -9 76 -21 63 -45 -14 -27 -56
-33 -96 -14 -44 21 -69 6 -33 -20 37 -26 83 -30 122 -11 37 17 50 44 41 82 -6
23 -12 26 -89 41 -48 9 -59 36 -21 53 19 9 32 9 56 -1 46 -19 61 2 17 24 -49
23 -84 20 -112 -9z"/>
<path d="M460 1675 c0 -87 3 -105 15 -105 11 0 15 11 15 39 0 32 4 40 23 45
38 10 44 7 57 -25 7 -17 19 -37 27 -45 19 -19 53 -18 53 1 0 8 -6 15 -13 15
-8 0 -20 11 -27 25 -12 23 -11 27 8 46 26 23 29 71 6 93 -11 12 -36 16 -90 16
l-74 0 0 -105z m148 47 c4 -25 -3 -29 -70 -35 l-48 -5 0 35 0 34 58 -3 c50 -3
57 -6 60 -26z"/>
<path d="M701 1675 l2 -105 84 0 c67 0 83 3 83 15 0 12 -14 15 -65 15 l-65 0
0 30 c0 28 2 30 39 30 25 0 41 5 45 15 4 12 -4 15 -39 15 -43 0 -45 1 -45 30
l0 30 60 0 c47 0 60 3 60 15 0 12 -16 15 -80 15 l-81 0 2 -105z"/>
<path d="M1130 1674 c0 -95 2 -105 18 -102 15 3 17 17 18 106 1 93 0 102 -17
102 -17 0 -19 -9 -19 -106z"/>
<path d="M1220 1771 c0 -6 4 -12 9 -15 5 -4 9 -39 9 -79 0 -105 1 -107 17
-107 11 0 15 16 17 67 l3 66 55 -66 c80 -96 90 -92 90 38 0 85 -3 105 -15 105
-11 0 -15 -18 -17 -79 l-3 -80 -65 80 c-36 44 -73 79 -82 79 -10 0 -18 -4 -18
-9z"/>
<path d="M1560 1675 c0 -98 1 -105 20 -105 16 0 19 6 18 36 -2 67 50 74 84 12
17 -31 31 -44 49 -46 18 -2 26 2 26 12 0 9 -6 16 -13 16 -8 0 -21 12 -31 26
-16 25 -16 27 4 43 31 23 34 68 7 95 -11 12 -36 16 -90 16 l-74 0 0 -105z
m145 45 c0 -23 -5 -25 -52 -30 -46 -5 -52 -3 -55 15 -8 39 1 46 55 43 48 -3
52 -5 52 -28z"/>
<path d="M1810 1675 c0 -87 3 -105 15 -105 12 0 15 18 15 105 0 87 -3 105 -15
105 -12 0 -15 -18 -15 -105z"/>
<path d="M1896 1743 c9 -21 28 -68 42 -105 22 -54 31 -68 48 -68 18 0 29 18
63 101 23 56 40 103 37 106 -14 15 -34 -12 -60 -81 -16 -42 -32 -79 -37 -81
-4 -3 -22 33 -41 80 -24 62 -38 85 -51 85 -16 0 -16 -2 -1 -37z"/>
<path d="M2140 1675 l0 -105 80 0 c64 0 80 3 80 15 0 12 -14 15 -65 15 l-65 0
0 30 c0 29 2 30 45 30 33 0 45 4 45 15 0 11 -12 15 -45 15 -43 0 -45 1 -45 30
l0 30 60 0 c47 0 60 3 60 15 0 12 -15 15 -75 15 l-75 0 0 -105z"/>
<path d="M2350 1675 c0 -87 3 -105 15 -105 11 0 15 11 15 39 0 36 2 39 33 44
17 2 33 1 35 -4 21 -55 92 -105 92 -65 0 9 -6 16 -13 16 -8 0 -19 12 -26 26
-10 23 -9 29 9 46 25 23 26 69 2 91 -14 13 -38 17 -90 17 l-72 0 0 -105z m145
45 c0 -23 -5 -25 -53 -30 -29 -3 -55 -4 -58 -1 -2 2 -4 17 -4 33 0 29 0 29 58
26 53 -3 57 -5 57 -28z"/>
<path d="M966 1321 c-20 -39 -36 -72 -36 -75 0 -3 12 -1 26 4 34 13 87 13 101
-1 6 -6 13 -7 17 -1 5 8 -60 142 -69 142 -2 0 -19 -31 -39 -69z m42 -34 c-28
-10 -31 -5 -17 27 l13 27 12 -23 c11 -20 10 -24 -8 -31z"/>
<path d="M1802 1321 c-18 -36 -32 -69 -32 -73 0 -4 12 -3 26 2 31 12 94 13 94
2 0 -5 7 -9 15 -9 8 0 15 2 15 5 0 8 -72 132 -78 135 -4 2 -22 -26 -40 -62z
m57 -10 c9 -15 7 -20 -11 -24 -28 -8 -32 -4 -23 22 8 26 21 27 34 2z"/>
<path d="M760 1309 c0 -52 3 -70 13 -67 6 3 13 17 15 31 3 23 8 27 38 27 31 0
34 -2 34 -31 0 -20 4 -29 13 -27 7 3 13 29 15 71 2 55 0 67 -13 67 -9 0 -15
-9 -15 -25 0 -22 -4 -25 -35 -25 -31 0 -35 3 -35 25 0 16 -6 25 -15 25 -12 0
-15 -15 -15 -71z"/>
<path d="M1123 1313 c1 -43 6 -68 15 -71 8 -2 12 10 12 44 l0 49 46 -50 c41
-44 47 -48 53 -31 4 11 6 29 5 40 -1 12 -3 36 -3 54 -1 51 -21 37 -21 -15 l-1
-48 -42 48 c-23 26 -47 47 -54 47 -8 0 -11 -21 -10 -67z"/>
<path d="M1313 1362 c11 -12 17 -36 17 -70 l0 -52 33 4 c17 2 37 4 44 5 23 2
43 33 43 66 0 46 -29 65 -99 65 -52 0 -53 -1 -38 -18z m107 -31 c5 -11 10 -22
10 -25 0 -12 -33 -36 -51 -36 -16 0 -19 7 -19 40 0 36 3 40 25 40 14 0 29 -8
35 -19z"/>
<path d="M1568 1310 c3 -52 7 -70 18 -70 10 0 14 13 14 43 l0 42 25 -30 25
-30 25 30 25 30 0 -41 c0 -28 4 -41 14 -41 11 0 15 18 18 69 4 80 -12 90 -51
33 -13 -19 -27 -35 -31 -35 -4 0 -18 16 -31 35 -39 58 -55 47 -51 -35z"/>
<path d="M1940 1372 c0 -4 4 -12 9 -17 6 -6 11 -32 13 -60 l3 -50 44 1 c50 2
81 28 81 70 0 42 -33 64 -95 64 -30 0 -55 -4 -55 -8z m118 -50 c5 -30 -14 -52
-44 -52 -21 0 -24 5 -24 41 0 39 1 40 33 37 25 -2 33 -8 35 -26z"/>
<path d="M2140 1311 l0 -69 55 0 c39 1 55 5 55 15 0 9 -13 13 -40 13 -29 0
-40 4 -40 15 0 10 10 15 30 15 20 0 30 5 30 15 0 10 -10 15 -30 15 -43 0 -37
18 7 22 62 5 53 28 -11 28 l-56 0 0 -69z"/>
<path d="M485 982 c87 -168 166 -252 287 -305 30 -14 75 -40 100 -58 24 -19
78 -59 119 -90 164 -124 255 -156 409 -144 52 4 118 7 145 6 79 -2 201 18 279
46 39 14 152 65 251 114 229 112 269 148 383 352 33 59 70 119 81 133 32 41
27 54 -22 54 -69 0 -72 -4 -179 -200 -45 -84 -130 -164 -221 -210 -43 -22 -81
-40 -84 -40 -4 0 14 15 39 33 131 94 230 204 298 330 23 42 40 77 37 77 -2 0
-27 -39 -53 -87 -72 -127 -233 -291 -342 -347 -19 -10 -30 -21 -26 -28 4 -7 3
-8 -4 -4 -6 4 -25 0 -41 -9 -113 -58 -291 -100 -492 -116 -210 -17 -238 -6
-479 177 -58 44 -125 88 -149 98 -100 39 -164 106 -241 249 l-42 77 -54 0 -55
0 56 -108z m1360 -431 c-6 -5 -21 -11 -35 -15 -21 -5 -20 -3 5 9 35 17 42 18
30 6z m-100 -36 c-22 -8 -51 -13 -65 -13 -14 0 -3 5 25 13 65 17 91 17 40 0z
m-98 -21 c-3 -3 -12 -4 -19 -1 -8 3 -5 6 6 6 11 1 17 -2 13 -5z"/>
<path d="M1957 1046 c-30 -27 -96 -65 -180 -104 -72 -34 -127 -62 -120 -62 6
0 72 29 145 64 92 45 145 77 173 105 51 53 43 52 -18 -3z"/>
<path d="M2065 1054 c-22 -20 -85 -58 -139 -86 -54 -27 -128 -72 -163 -99 -93
-71 -173 -93 -311 -86 -59 3 -120 8 -137 11 -16 3 -5 -1 25 -10 38 -10 88 -13
160 -11 123 4 188 26 265 87 28 22 97 63 154 92 57 29 125 72 150 95 25 23 44
42 41 42 -3 0 -23 -16 -45 -35z"/>
<path d="M2140 1031 c-42 -43 -83 -70 -170 -115 -63 -32 -135 -75 -160 -95
-25 -21 -63 -47 -85 -59 -22 -12 -36 -21 -32 -22 16 0 73 33 117 70 25 20 95
63 157 94 106 54 201 125 224 167 14 27 11 24 -51 -40z"/>
<path d="M2286 1040 c-39 -71 -97 -143 -195 -240 -105 -103 -127 -120 -166
-121 -18 -1 -23 -3 -12 -6 10 -3 30 -2 44 2 41 10 262 239 317 328 27 43 46
80 44 82 -3 3 -17 -17 -32 -45z"/>
<path d="M622 1038 c38 -69 126 -156 243 -240 60 -43 137 -99 170 -124 90 -67
176 -105 249 -110 l61 -3 -60 9 c-73 10 -152 45 -222 96 -29 22 -112 82 -185
135 -140 102 -189 148 -239 229 -37 61 -49 66 -17 8z"/>
<path d="M679 1022 c46 -68 88 -107 195 -182 43 -30 101 -73 130 -95 123 -97
221 -147 285 -144 20 1 21 2 6 5 -112 23 -138 38 -367 203 -156 113 -186 139
-235 208 -56 79 -67 83 -14 5z"/>
<path d="M1820 1065 c-41 -23 -172 -81 -215 -95 -22 -7 -76 -16 -120 -20 -79
-7 -79 -7 -20 -9 76 -1 153 18 249 64 41 19 77 35 80 35 3 0 20 9 38 20 37 23
27 27 -12 5z"/>
<path d="M2221 1010 c-24 -38 -94 -117 -156 -178 -92 -90 -120 -112 -151 -118
-22 -4 -64 -18 -94 -31 -30 -13 -77 -31 -105 -38 -28 -8 -40 -14 -26 -14 13
-1 62 14 110 33 47 19 102 38 121 42 27 5 63 34 153 123 101 100 208 233 196
245 -2 2 -24 -27 -48 -64z"/>
<path d="M1130 1051 c26 -21 122 -71 137 -71 4 1 -17 13 -47 28 -30 15 -68 36
-85 46 l-30 18 25 -21z"/>
<path d="M1220 1065 c0 -12 107 -55 135 -54 26 1 24 2 -12 9 -22 5 -60 18 -82
30 -23 11 -41 18 -41 15z"/>
<path d="M740 1057 c0 -15 68 -88 113 -119 186 -134 297 -190 398 -203 30 -4
21 1 -30 15 -97 26 -223 88 -286 140 -27 23 -61 48 -76 55 -14 8 -47 37 -73
66 -25 28 -46 49 -46 46z"/>
<path d="M839 1042 c7 -12 31 -34 54 -49 23 -14 60 -41 82 -58 46 -37 138 -90
175 -100 14 -4 -9 11 -51 32 -73 37 -167 104 -238 168 -28 25 -32 27 -22 7z"/>
<path d="M995 1041 c30 -34 133 -105 189 -130 81 -35 75 -23 -10 18 -43 21
-106 60 -139 86 -33 27 -51 38 -40 26z"/>
<path d="M1605 1045 c-39 -17 -21 -18 25 0 19 7 28 14 20 14 -8 0 -28 -6 -45
-14z"/>
<path d="M1548 1023 c7 -3 16 -2 19 1 4 3 -2 6 -13 5 -11 0 -14 -3 -6 -6z"/>
<path d="M1483 1013 c9 -2 25 -2 35 0 9 3 1 5 -18 5 -19 0 -27 -2 -17 -5z"/>
<path d="M1408 1003 c12 -2 30 -2 40 0 9 3 -1 5 -23 4 -22 0 -30 -2 -17 -4z"/>
<path d="M1315 965 c22 -8 51 -13 65 -13 14 0 0 6 -30 13 -69 18 -88 17 -35 0z"/>
<path d="M1275 880 c11 -5 27 -9 35 -9 9 0 8 4 -5 9 -11 5 -27 9 -35 9 -9 0
-8 -4 5 -9z"/>
<path d="M1590 870 c-20 -6 -21 -8 -5 -8 11 0 29 3 40 8 25 11 -1 11 -35 0z"/>
<path d="M1355 860 c29 -7 220 -12 200 -5 -5 2 -59 5 -120 8 -60 2 -96 0 -80
-3z"/>
<path d="M1190 821 c8 -5 33 -12 55 -15 28 -4 33 -3 15 2 -46 16 -86 23 -70
13z"/>
<path d="M1625 725 c-22 -8 -31 -14 -20 -14 11 0 34 6 50 14 38 17 22 17 -30
0z"/>
<path d="M1308 723 c7 -3 16 -2 19 1 4 3 -2 6 -13 5 -11 0 -14 -3 -6 -6z"/>
<path d="M1348 713 c6 -2 18 -2 25 0 6 3 1 5 -13 5 -14 0 -19 -2 -12 -5z"/>
<path d="M1438 703 c29 -2 74 -2 100 0 26 2 2 3 -53 3 -55 0 -76 -1 -47 -3z"/>
<path d="M1822 643 c-30 -14 -93 -33 -140 -43 -48 -10 -75 -19 -61 -19 41 -1
173 35 226 63 62 32 44 32 -25 -1z"/>
<path d="M1570 620 c-27 -6 -29 -8 -10 -8 14 -1 43 3 65 7 33 7 35 9 10 9 -16
-1 -46 -4 -65 -8z"/>
<path d="M1427 603 c18 -2 50 -2 70 0 21 2 7 4 -32 4 -38 0 -55 -2 -38 -4z"/>
<path d="M1440 570 l-85 -6 75 -1 c41 -1 95 2 120 6 39 7 41 8 10 8 -19 0 -73
-4 -120 -7z"/>
</g>
</svg>
